<?xml version="1.0" standalone="no"?>
<!DOCTYPE svg PUBLIC "-//W3C//DTD SVG 20010904//EN"
 "http://www.w3.org/TR/2001/REC-SVG-20010904/DTD/svg10.dtd">
<svg version="1.0" xmlns="http://www.w3.org/2000/svg"
 width="16.000000pt" height="16.000000pt" viewBox="0 0 16.000000 16.000000"
 preserveAspectRatio="xMidYMid meet">
<metadata>
Created by potrace 1.11, written by Peter Selinger 2001-2013
</metadata>
<g transform="translate(0.000000,16.000000) scale(0.002286,-0.002286)"
fill="#000000" stroke="none">
<path d="M3537 6554 c-1 -1 -87 -4 -192 -8 -104 -4 -206 -8 -225 -10 -19 -2
-70 -7 -113 -11 -43 -4 -88 -8 -100 -10 -12 -2 -56 -7 -97 -10 -41 -3 -91 -8
-110 -10 -19 -2 -62 -6 -95 -9 -33 -4 -78 -8 -100 -11 -22 -2 -76 -7 -120 -11
-100 -8 -135 -11 -210 -20 -33 -3 -145 -8 -250 -10 -104 -2 -192 -4 -195 -5
-6 -1 259 -68 282 -71 9 -1 15 -5 12 -9 -2 -4 -57 -8 -121 -9 -65 -1 -122 -2
-128 -2 -45 -1 -230 15 -256 22 -34 10 -50 6 -33 -9 11 -10 255 -81 278 -81
28 0 17 -19 -16 -28 -62 -18 -251 -102 -362 -161 -208 -109 -332 -199 -481
-346 -199 -197 -294 -373 -350 -648 -13 -67 -26 -138 -29 -157 -2 -19 -7 -55
-11 -80 -32 -233 -37 -610 -11 -770 3 -14 7 -45 10 -70 22 -172 72 -329 123
-391 26 -32 66 -4 79 54 11 47 33 227 39 317 3 52 8 102 10 110 2 8 7 51 10
95 4 43 8 82 10 85 1 3 6 32 9 65 18 162 72 356 132 480 38 78 141 182 216
218 139 66 340 82 548 42 53 -10 85 -19 265 -73 160 -48 437 -114 710 -168 34
-7 199 -36 220 -39 36 -6 90 -16 105 -20 8 -2 38 -7 65 -11 28 -3 58 -8 67 -9
9 -2 68 -11 130 -20 62 -9 124 -18 138 -20 14 -2 44 -6 68 -9 23 -3 59 -8 80
-11 20 -3 73 -10 117 -16 44 -5 91 -12 105 -14 14 -1 57 -6 95 -9 39 -4 81 -9
95 -11 31 -5 95 -11 315 -31 33 -3 76 -7 95 -9 56 -7 189 -15 500 -32 277 -15
834 -8 1000 12 113 14 143 19 215 35 111 26 162 45 218 83 47 32 68 69 82 142
13 66 12 265 -1 355 -20 143 -23 156 -65 283 -66 201 -172 380 -297 502 -252
247 -813 437 -1532 519 -238 27 -435 38 -722 40 -120 1 -220 1 -221 0z"/>
<path d="M1787 2664 c-1 -1 -94 -4 -207 -8 -113 -3 -230 -8 -260 -11 -30 -2
-86 -7 -125 -10 -38 -3 -101 -10 -140 -15 -38 -5 -89 -11 -113 -14 -151 -19
-336 -61 -445 -101 -93 -35 -155 -94 -201 -190 -33 -68 -43 -93 -51 -132 -2
-10 -10 -47 -19 -83 -8 -36 -17 -83 -20 -105 -3 -22 -12 -96 -21 -165 -14
-116 -20 -400 -10 -510 2 -25 6 -81 10 -125 7 -91 10 -117 31 -235 43 -240
116 -368 261 -456 110 -66 324 -88 848 -88 680 1 972 32 1175 127 166 77 405
412 554 779 79 194 161 472 186 630 14 92 26 114 74 137 125 59 398 31 425
-43 5 -11 14 -52 20 -91 30 -171 112 -450 188 -634 147 -362 385 -699 546
-775 132 -62 289 -95 522 -112 331 -23 1075 -23 1225 0 14 2 53 7 87 11 272
27 426 220 469 588 4 29 8 54 9 57 2 3 6 48 10 100 4 52 9 109 10 125 6 47 6
386 0 430 -3 22 -12 96 -21 165 -39 313 -103 476 -219 556 -112 77 -465 146
-910 179 -281 21 -894 21 -1110 0 -16 -1 -66 -6 -110 -9 -95 -8 -106 -10 -255
-31 -189 -27 -278 -66 -369 -159 -74 -75 -192 -107 -376 -100 -151 6 -209 28
-302 114 -91 86 -186 124 -358 145 -27 4 -57 8 -65 10 -20 5 -189 22 -295 30
-135 10 -641 25 -648 19z m583 -138 c19 -2 78 -7 130 -11 52 -4 109 -9 125
-11 17 -2 53 -6 81 -9 28 -3 62 -8 75 -10 13 -3 44 -8 67 -11 100 -12 214 -74
252 -137 40 -64 52 -162 36 -283 -4 -27 -8 -62 -11 -79 -2 -16 -9 -52 -15 -80
-6 -27 -13 -57 -15 -65 -12 -55 -39 -145 -74 -251 -109 -327 -214 -530 -401
-773 -40 -52 -106 -117 -131 -131 -16 -8 -42 -22 -58 -30 -42 -22 -205 -62
-287 -70 -38 -4 -71 -9 -74 -10 -3 -2 -68 -6 -145 -10 -77 -4 -171 -8 -210
-10 -185 -10 -754 -4 -900 10 -188 17 -232 26 -285 58 -44 26 -106 92 -129
137 -37 72 -75 222 -86 337 -3 32 -7 67 -10 78 -8 39 -18 242 -19 370 0 184 9
279 48 515 22 130 81 265 136 307 67 52 356 116 665 148 33 3 80 8 105 10 25
3 101 8 170 11 69 3 127 8 129 10 5 5 787 -4 831 -10z m3253 1 c162 -14 223
-19 237 -22 8 -1 49 -6 90 -10 66 -6 111 -12 270 -40 64 -11 214 -53 261 -73
55 -24 83 -51 114 -112 26 -52 60 -158 69 -216 3 -21 11 -61 16 -89 49 -250
43 -708 -12 -985 -6 -30 -11 -59 -12 -65 -37 -190 -153 -323 -297 -340 -24 -3
-53 -8 -64 -10 -19 -4 -85 -9 -260 -20 -85 -5 -660 -5 -765 0 -41 2 -127 6
-190 10 -311 15 -506 64 -608 150 -45 39 -182 218 -249 325 -89 144 -167 319
-243 550 -130 390 -156 635 -80 757 27 45 104 98 170 117 107 31 304 55 600
72 58 4 107 8 108 9 6 5 779 -3 845 -8z"/>
</g>
</svg>
