<svg id="Layer_1" data-name="Layer 1" xmlns="http://www.w3.org/2000/svg" viewBox="0 0 275.77 181.03"><title>logo-no-underline</title><g id="CB"><path id="C" d="M242.17,164.83c-0.15-1.82,1.39-2.77,1.4-6.35a9.19,9.19,0,0,0-1.65-5.68q-1.65-2.13-5.68-2.14-5.25,0-11.84,3.42a78.54,78.54,0,0,0-13.79,9.4,158.9,158.9,0,0,0-14.65,14q-7.45,8-14.4,17.09t-13.12,18.92a193.79,193.79,0,0,0-10.74,19.41,126.19,126.19,0,0,0-7.2,18.43,57,57,0,0,0-2.62,16.05q0,8.91,4.76,14.28T168.38,287q5.13,0,15.26-4a121.46,121.46,0,0,0,16.91-7.93q6.77-4,13.67-8.79T227.34,257q6.23-4.45,11.35-8.06a53.68,53.68,0,0,1,8.42-5.07,2.28,2.28,0,0,1,1.46-.49q1.83,0,2.5,3a31.15,31.15,0,0,1,.67,6.77,28.79,28.79,0,0,1-.55,5.07,17.36,17.36,0,0,1-3.48,6.9q-1.34,1.59-5,5.37t-9.16,8.54Q228.08,283.84,221,289a121.12,121.12,0,0,1-15.32,9.4,138.4,138.4,0,0,1-21.24,8.42q-13,4.15-22.64,4.15a60.47,60.47,0,0,1-19.41-2.75,35.31,35.31,0,0,1-13.18-7.63,29.25,29.25,0,0,1-7.51-11.66,44.46,44.46,0,0,1-2.38-14.83,83.81,83.81,0,0,1,3.05-21.48,145.82,145.82,0,0,1,8.48-23.32,200.07,200.07,0,0,1,12.94-23.68A218.85,218.85,0,0,1,160.27,183a203.17,203.17,0,0,1,19.1-20.08,155.31,155.31,0,0,1,20.75-16.11A107.33,107.33,0,0,1,221.48,136a61.54,61.54,0,0,1,21.12-3.91,40.17,40.17,0,0,1,9.77,1.16,22.9,22.9,0,0,1,8.12,3.72,17.75,17.75,0,0,1,5.49,6.77,23.79,23.79,0,0,1,2,10.31,36.48,36.48,0,0,1-1,7.93c-1.13,5.6-1.69,8.4-3,9.64C258.67,176.75,242.64,170.44,242.17,164.83Z" transform="translate(-119.31 -132.11)"/><path id="B" d="M276.18,150.48c1-1.56,5.94-3.48,15.74-7.24,2.72-1,4.08-1.57,5.56-2.09a170.59,170.59,0,0,1,23.8-6.47,128.24,128.24,0,0,1,24.84-2.44,102.49,102.49,0,0,1,22.09,2.08,49.49,49.49,0,0,1,15.2,5.74,24.91,24.91,0,0,1,8.79,8.67,21.48,21.48,0,0,1,2.87,10.86,23.35,23.35,0,0,1-3.91,12.21A56.8,56.8,0,0,1,380,184.48a102.36,102.36,0,0,1-17.7,12.15,157.53,157.53,0,0,1-18.92,8.83,1.78,1.78,0,0,0,0,3.33,103.14,103.14,0,0,1,16.44,7.38,52.43,52.43,0,0,1,12.7,9.77,27.12,27.12,0,0,1,6.16,10.5,39.68,39.68,0,0,1,1.59,11.17,33.31,33.31,0,0,1-4.64,16.6,60.64,60.64,0,0,1-12.88,15.44,106.77,106.77,0,0,1-19.53,13.43,151.79,151.79,0,0,1-24.6,10.62,186.29,186.29,0,0,1-28.08,7,178.88,178.88,0,0,1-29.91,2.5,98.47,98.47,0,0,1-10.86-.61,46.46,46.46,0,0,1-10.07-2.2,20.59,20.59,0,0,1-7.45-4.27,9.09,9.09,0,0,1-2.87-7,6.33,6.33,0,0,1,.06-0.92c0-.28.1-0.63,0.18-1q0.49-1,1.1-2.38a6.72,6.72,0,0,1,2.81-2.75,21.86,21.86,0,0,1,6.9-2.26,71.32,71.32,0,0,1,12.42-.91,1.81,1.81,0,0,0,1.57-.94q14.91-27.36,24.7-47.22c6.63-13.47,12.07-24.62,16.66-33.26,4.83-9.1,7.75-14.7,10.29-19.18s8.91-17.73,12.13-18.5c1.28-.31,4.69.19,6,0.51a29,29,0,0,1,5.72,2.3,21,21,0,0,1,3.25,2.19,3.58,3.58,0,0,1,1.5,2c0.24,0.71-.07,1.26-1.08,3.08-1.63,2.94-6.39,10-7,11.17l-1.08,2.17a1.56,1.56,0,0,0,2.15,1.6,145.09,145.09,0,0,0,16.32-8.33,93.47,93.47,0,0,0,13.67-9.22,42,42,0,0,0,8.3-8.85,14.56,14.56,0,0,0,2.81-7.81,4.87,4.87,0,0,0-1.22-2.81,11.48,11.48,0,0,0-3.72-2.93,26.68,26.68,0,0,0-6.29-2.26,37.63,37.63,0,0,0-8.79-.92,91.53,91.53,0,0,0-24.9,3.23c-6.18,1.74-13,3.42-20.87,7.87-10.5,5.93-12,10.41-16.6,9.7C278.7,171.25,272.18,156.62,276.18,150.48Zm43.66,68.81a1.79,1.79,0,0,0-2.2,1q-5.12,11.56-9.66,20.85-4.82,9.89-9.09,18.13t-8.12,15.38l-5.94,11a1.78,1.78,0,0,0,1.78,2.61,126.41,126.41,0,0,0,23.08-4.62,94,94,0,0,0,21.36-9.22,50.17,50.17,0,0,0,14.28-12.33,23.46,23.46,0,0,0,5.19-14.4,19.27,19.27,0,0,0-1.53-7.2,24,24,0,0,0-5.19-7.57,46.68,46.68,0,0,0-9.89-7.45A76.48,76.48,0,0,0,319.84,219.29Z" transform="translate(-119.31 -132.11)"/></g></svg>