<svg id="Layer_1" data-name="Layer 1" xmlns="http://www.w3.org/2000/svg" viewBox="0 0 252.2 252.2"><defs><style>.cls-1{fill:none;stroke:#ff5722;stroke-miterlimit:10;stroke-width:10px;}.cls-2{fill:#ff5722;}</style></defs><title>Level-0</title><circle class="cls-1" cx="126.1" cy="126.1" r="121.1"/><path class="cls-2" d="M54.2,74.6h6.3v43.3H81.2v5.3h-27V74.6Z" transform="translate(-1.9 -1.9)"/><path class="cls-2" d="M90.5,106.8c0.1,8.6,5.6,12.1,12,12.1a22.65,22.65,0,0,0,9.6-1.8l1.1,4.5a27.93,27.93,0,0,1-11.6,2.2c-10.7,0-17.1-7.1-17.1-17.6s6.2-18.8,16.3-18.8c11.4,0,14.4,10,14.4,16.4a21.13,21.13,0,0,1-.2,3H90.5Zm18.6-4.5c0.1-4-1.7-10.3-8.8-10.3-6.4,0-9.2,5.9-9.7,10.3h18.5Z" transform="translate(-1.9 -1.9)"/><path class="cls-2" d="M125.5,88.3l6.8,19.6a75,75,0,0,1,2.8,8.9h0.2a93.3,93.3,0,0,1,3-8.9l6.8-19.6h6.6L138,123.1h-6L118.8,88.2h6.7v0.1Z" transform="translate(-1.9 -1.9)"/><path class="cls-2" d="M160.5,106.8c0.1,8.6,5.6,12.1,12,12.1a22.65,22.65,0,0,0,9.6-1.8l1.1,4.5a27.93,27.93,0,0,1-11.6,2.2c-10.7,0-17.1-7.1-17.1-17.6s6.2-18.8,16.3-18.8c11.4,0,14.4,10,14.4,16.4a21.13,21.13,0,0,1-.2,3H160.5Zm18.6-4.5c0.1-4-1.7-10.3-8.8-10.3-6.4,0-9.2,5.9-9.7,10.3h18.5Z" transform="translate(-1.9 -1.9)"/><path class="cls-2" d="M193,72h6.3v51.1H193V72Z" transform="translate(-1.9 -1.9)"/><path class="cls-2" d="M143.9,178c0,15.9-5.9,24.7-16.3,24.7-9.1,0-15.3-8.6-15.5-24,0-15.7,6.8-24.3,16.3-24.3C138.3,154.25,143.9,163.05,143.9,178Zm-25.4.7c0,12.2,3.7,19.1,9.5,19.1,6.5,0,9.6-7.6,9.6-19.5,0-11.5-3-19.1-9.5-19.1C122.5,159.15,118.5,166,118.5,178.65Z" transform="translate(-1.9 -1.9)"/></svg>