<?xml version="1.0" encoding="utf-8"?>
<!-- Generator: Adobe Illustrator 19.0.0, SVG Export Plug-In . SVG Version: 6.00 Build 0)  -->
<svg version="1.1" id="Layer_1" xmlns="http://www.w3.org/2000/svg" xmlns:xlink="http://www.w3.org/1999/xlink" x="0px" y="0px"
	 viewBox="0 0 500 500" style="enable-background:new 0 0 500 500;" xml:space="preserve">
<style type="text/css">
	.st0{fill:none;stroke:#000000;stroke-width:1.2274;stroke-miterlimit:10;}
	.st1{fill:#4A311C;}
	.st2{fill:none;stroke:#4A311C;stroke-width:1.2274;stroke-miterlimit:10;}
	.st3{fill:#372515;}
	.st4{fill:none;stroke:#372515;stroke-width:1.2274;stroke-miterlimit:10;}
</style>
<g id="XMLID_1_">
	<g id="XMLID_16_">
		<path id="XMLID_25_" d="M268.2,354.6c0-0.1,0-0.1,0-0.2c-0.8-7.4-0.8-14.3,0.9-19.7c0.9-2.8,2.2-5.4,4-7.8
			c4.3-5.7,11.3-9.8,19.8-11.3c18.8-3.5,44.7-5.3,73-5.3c35.3,0,80.6,3.3,101.6,12.5c13.2,5.8,17,27.6,19,48.2
			c0.1,1.2,0.2,2.1,0.3,2.7c1.9,15.2,0,42.5-2.1,54.6c-2.3,13-4.9,27.7-20.2,36.1c-2.4,1.3-9.7,5.4-58.8,5.4
			c-26.4,0-53.4-1.3-62.8-3c-22.4-4.1-27.7-8.4-36-19.1c-11.9-15.2-19.2-28.1-25.9-46.1C276.3,389.6,270.1,370.8,268.2,354.6z
			 M477.5,426.9c2.1-12.1,3.8-38.4,2-52.2c-0.8-6.3-2.6-39.5-14.9-44.9c-30.2-13.3-123.1-15.5-170.6-6.7c-10.9,2-16.5,8.3-18.2,13.9
			c-4.8,16,7.4,50.4,11.7,61.8c6.1,16.2,12.5,28.5,24.8,44.1c7,9,10.7,12.7,31.6,16.4c17.4,3.2,105.1,5.1,117.1-1.6
			C473,451.1,475.2,440.1,477.5,426.9z"/>
		<path id="XMLID_24_" d="M273,326.9c-1.8,2.3-3.2,5-4,7.8c-1.6,5.4-1.7,12.3-0.9,19.7c-1.8-6.8-16.2-6.7-18.2-6.7
			c-2.4,0-16.1-0.1-18.2,6.9c0.9-7.5,0.8-14.4-0.8-19.8c-0.9-2.8-2.2-5.4-4-7.8c5.5,6.3,19.9,6.3,23,6.3
			C252.8,333.2,267.5,333.2,273,326.9z"/>
		<path id="XMLID_18_" d="M231.8,354.6c-1.9,16.2-8.1,35-12.7,47c-6.8,18-14.1,30.9-25.9,46.1c-8.3,10.6-13.6,15-36,19.1
			c-9.4,1.7-36.4,3-62.8,3c-49.1,0-56.5-4-58.8-5.4c-15.3-8.4-17.9-23.2-20.2-36.1c-2.1-12.1-4-39.4-2.1-54.6
			c0.1-0.6,0.2-1.6,0.3-2.7c2-20.6,5.8-42.4,19-48.2c21-9.2,66.3-12.5,101.6-12.5c28.3,0,54.2,1.9,73,5.3
			c8.5,1.6,15.4,5.6,19.8,11.3c1.8,2.3,3.2,5,4,7.8C232.6,340.2,232.7,347.1,231.8,354.6z M212.5,398.8
			c4.3-11.4,16.4-45.8,11.7-61.8c-1.7-5.6-7.2-11.9-18.2-13.9c-47.5-8.8-140.5-6.6-170.6,6.7c-12.4,5.4-14.1,38.7-14.9,44.9
			c-1.7,13.8-0.1,40.1,2,52.2c2.3,13.2,4.5,24.2,16.5,30.8c12.1,6.7,99.7,4.8,117.1,1.6c20.9-3.8,24.6-7.5,31.6-16.4
			C199.9,427.3,206.4,414.9,212.5,398.8z"/>
	</g>
	<g id="XMLID_17_">
		<path id="XMLID_41_" class="st0" d="M231.8,354.6c-1.9,16.2-8.1,35-12.7,47c-6.8,18-14.1,30.9-25.9,46.1
			c-8.3,10.6-13.6,15-36,19.1c-9.4,1.7-36.4,3-62.8,3c-49.1,0-56.5-4-58.8-5.4c-15.3-8.4-17.9-23.2-20.2-36.1
			c-2.1-12.1-4-39.4-2.1-54.6c0.1-0.6,0.2-1.6,0.3-2.7c2-20.6,5.8-42.4,19-48.2c21-9.2,66.3-12.5,101.6-12.5c28.3,0,54.2,1.9,73,5.3
			c8.5,1.6,15.4,5.6,19.8,11.3c1.8,2.3,3.2,5,4,7.8C232.6,340.2,232.7,347.1,231.8,354.6z"/>
		<path id="XMLID_40_" class="st0" d="M35.3,329.8c30.2-13.3,123.1-15.5,170.6-6.7c10.9,2,16.5,8.3,18.2,13.9
			c4.8,16-7.4,50.4-11.7,61.8c-6.1,16.2-12.5,28.5-24.8,44.1c-7,9-10.7,12.7-31.6,16.4c-17.4,3.2-105.1,5.1-117.1-1.6
			c-11.9-6.6-14.1-17.6-16.5-30.8c-2.1-12.1-3.8-38.4-2-52.2C21.2,368.4,23,335.2,35.3,329.8z"/>
		<path id="XMLID_35_" class="st0" d="M268.2,354.6c1.9,16.2,8.1,34.9,12.7,47c6.8,18,14.1,30.9,25.9,46.1c8.3,10.6,13.6,15,36,19.1
			c9.4,1.7,36.4,3,62.8,3c49.1,0,56.5-4,58.8-5.4c15.3-8.4,17.9-23.2,20.2-36.1c2.1-12.1,4-39.4,2.1-54.6c-0.1-0.6-0.2-1.6-0.3-2.7
			c-2-20.6-5.8-42.4-19-48.2c-21-9.2-66.3-12.5-101.6-12.5c-28.3,0-54.2,1.9-73,5.3c-8.5,1.6-15.4,5.6-19.8,11.3
			c-1.8,2.3-3.2,5-4,7.8c-1.6,5.4-1.7,12.3-0.9,19.7"/>
		<path id="XMLID_34_" class="st0" d="M464.7,329.8c-30.2-13.3-123.1-15.5-170.6-6.7c-10.9,2-16.5,8.3-18.2,13.9
			c-4.8,16,7.4,50.4,11.7,61.8c6.1,16.2,12.5,28.5,24.8,44.1c7,9,10.7,12.7,31.6,16.4c17.4,3.2,105.1,5.1,117.1-1.6
			c11.9-6.6,14.1-17.6,16.5-30.8c2.1-12.1,3.8-38.4,2-52.2C478.8,368.4,477,335.2,464.7,329.8z"/>
		<path id="XMLID_31_" class="st0" d="M268.2,354.7L268.2,354.7c0-0.1,0-0.2,0-0.2c-1.8-6.8-16.2-6.7-18.2-6.7
			c-2.4,0-16.1-0.1-18.2,6.9v0.1"/>
		<path id="XMLID_30_" class="st0" d="M227,326.9c5.5,6.3,19.9,6.3,23,6.3c2.8,0,17.5,0,23-6.3"/>
	</g>
</g>
<g id="XMLID_6_">
	<g id="XMLID_13_">
		<g id="XMLID_2_">
			<g>
				<path class="st1" d="M394.1,42.8c7.9,4.5,26.8,21.2,34.8,29c-6.6-6.2-15.6-11.8-26.5-16.6C413.6,59.6,395.2,43.8,394.1,42.8
					C394,42.8,394.1,42.8,394.1,42.8z"/>
				<path class="st1" d="M430.1,72.9c0.1,0.1,0.2,0.2,0.3,0.3C430.3,73.2,430.2,73.1,430.1,72.9z"/>
				<path class="st1" d="M431.3,74.2c17.5,18.9,28.9,53.7,22.7,82.8c-6.9,32.4-238.9,9.9-324.7-18.7c-9.8-3.3-36.9-8.5-54.1,4.6
					c-24.9,18.9-19.6,86.8-25.7,97.7c-6.1,10.8-23-42.2-8.4-108.4c0.4-1.6,0.8-3.2,1.2-4.8c0.2-0.5,0.3-1,0.5-1.6c0-0.1,0-0.1,0-0.2
					c0.3-0.9,0.6-1.9,1-2.8c0-0.1,0.1-0.2,0.1-0.3c7.5-20.7,23.8-37.7,45.8-51.1c1.6-1,3.1-1.9,4.7-2.8
					C140.6,42.6,209,31.5,272.9,32.3c0.2,0,0.4,0,0.6,0c47.5,0.9,93.7,8.7,128.9,22.8l0,0c10.9,4.9,20,10.4,26.5,16.6
					c0.4,0.4,0.8,0.8,1.2,1.2c0.1,0.1,0.2,0.2,0.3,0.3C430.7,73.6,431,73.9,431.3,74.2z"/>
				<path class="st1" d="M402.3,55.1c-35.2-14-81.3-21.8-128.9-22.8C323.6,33,370.9,41.1,402.3,55.1z"/>
				<path class="st1" d="M43.9,122.6c7.6-20.9,23.9-37.8,45.8-51.1C67.7,84.8,51.5,101.8,43.9,122.6z"/>
				<path class="st1" d="M42.8,125.7c0.3-0.9,0.6-1.9,1-2.8C43.5,123.8,43.1,124.8,42.8,125.7z"/>
				<path class="st1" d="M42.8,125.9c-0.2,0.5-0.3,1-0.5,1.6C42.5,126.9,42.6,126.4,42.8,125.9z"/>
			</g>
			<g>
				<path class="st2" d="M430.4,73.3c0.3,0.3,0.6,0.6,0.9,0.9c17.5,18.9,28.9,53.7,22.7,82.8c-6.9,32.4-238.9,9.9-324.7-18.7
					c-9.8-3.3-36.9-8.5-54.1,4.6c-24.9,18.9-19.6,86.8-25.7,97.7c-6.1,10.8-23-42.2-8.4-108.4c0.4-1.6,0.8-3.2,1.2-4.8
					c0.2-0.5,0.3-1,0.5-1.6c0-0.1,0-0.1,0-0.2c0.3-0.9,0.6-1.9,1-2.8c0-0.1,0.1-0.2,0.1-0.3c7.5-20.7,23.8-37.7,45.8-51.1
					c1.6-1,3.1-1.9,4.7-2.8c45.7-25.9,113.3-37.5,178.5-36.3c0.2,0,0.4,0,0.6,0c47.5,0.9,93.7,8.7,128.9,22.8l0,0
					c11.3,4.5-7.1-11.3-8.3-12.3c0,0,0,0,0,0c7.9,4.5,26.8,21.2,34.8,29c0.4,0.4,0.8,0.8,1.2,1.2C430.2,73.1,430.3,73.2,430.4,73.3z
					"/>
			</g>
		</g>
	</g>
</g>
<g id="XMLID_8_">
	<g id="XMLID_7_">
		<path id="XMLID_45_" class="st3" d="M125.9,40.9c-0.6-0.1-1.1-0.3-1.5-0.3C124.7,40.6,125.2,40.7,125.9,40.9z"/>
		<path id="XMLID_44_" class="st3" d="M124.1,40.5c0,0,0.1,0,0.2,0.1C124.2,40.5,124.1,40.5,124.1,40.5z"/>
		<path id="XMLID_43_" class="st3" d="M291.8,65.1c-25.5-8.5-72.2-11.8-86.7-12.8c-9.3-0.7-52.7-2.5-73.6,0
			c-4.3,0.5-19.6-4.6-24.5-6.2c8.5,2.4,31.3,2.2,41.3,1.1c0.1,0,0.2-0.1,0.2-0.1c0-0.9-16.8-4.8-22.5-6.1c0.2,0,0.4,0.1,0.6,0.1
			c13.7,3,87.5-7.9,111.2-7.9c32.3,0,51.9,4.6,71.7,12.1c18.3,7,64.7,28.8,69.6,57.5c4.8,27.9-5.5,49.2-8.7,70.1l-37.3-2.2
			c1.2-15,15.9-38.9,14.2-56.3C345.5,95.1,312.8,72.1,291.8,65.1z"/>
		<path id="XMLID_10_" class="st3" d="M107,46c-0.5-0.2-1-0.3-1.4-0.5C105.7,45.6,106.2,45.8,107,46z"/>
	</g>
	<g id="XMLID_9_">
		<path id="XMLID_58_" class="st4" d="M124.4,40.6c0.3,0.1,0.8,0.2,1.5,0.3"/>
		<path id="XMLID_57_" class="st4" d="M124.1,40.5c0,0,0.1,0,0.2,0.1"/>
		<path id="XMLID_56_" class="st4" d="M125.9,40.9c-0.6-0.1-1.1-0.3-1.5-0.3h-0.1c0,0,0,0-0.1,0s-0.1,0-0.2-0.1c0,0,0,0-0.1,0l0,0"
			/>
		<path id="XMLID_55_" class="st4" d="M125.9,40.9L125.9,40.9"/>
		<path id="XMLID_54_" class="st4" d="M107,46c8.5,2.4,31.3,2.2,41.3,1.1c0.1,0,0.2-0.1,0.2-0.1c0-0.9-16.8-4.8-22.5-6.1"/>
		<path id="XMLID_53_" class="st4" d="M105.5,45.5L105.5,45.5L105.5,45.5c0.5,0.2,1,0.4,1.5,0.5"/>
		<path id="XMLID_47_" class="st4" d="M107,46c-0.8-0.3-1.3-0.4-1.4-0.5"/>
		<path id="XMLID_46_" class="st4" d="M107,46L107,46"/>
		<path id="XMLID_28_" class="st4" d="M125.9,40.9c0.2,0,0.4,0.1,0.6,0.1c13.7,3,87.5-7.9,111.2-7.9c32.3,0,51.9,4.6,71.7,12.1
			c18.3,7,64.7,28.8,69.6,57.5c4.8,27.9-5.5,49.2-8.7,70.1l-37.3-2.2c1.2-15,15.9-38.9,14.2-56.3c-1.8-19.2-34.5-42.2-55.5-49.2
			c-25.5-8.5-72.2-11.8-86.7-12.8c-9.3-0.7-52.7-2.5-73.6,0c-4.3,0.5-19.6-4.6-24.5-6.2"/>
	</g>
</g>
</svg>
